<svg width="25" height="24" viewBox="0 0 25 24" fill="none" xmlns="http://www.w3.org/2000/svg">
<path d="M17.0451 19.8633L0.985648 8.78553C-0.641782 7.66298 -0.0885634 5.32566 1.9408 4.77602L19.0091 0.14348C19.3707 0.0130174 19.7581 -0.0293334 20.1394 0.0199461C20.5205 0.0692256 20.8845 0.208712 21.2011 0.426831C21.5175 0.644949 21.7775 0.935407 21.9592 1.2741C22.1409 1.61279 22.2393 1.98994 22.2461 2.37426L21.2345 18.0837C21.1146 19.9484 18.6725 20.9859 17.0451 19.8633Z" fill="#94A3B8"/>
<path d="M11.9516 22.5978L2.49042 4.09541C2.27414 3.67213 2.17898 3.19734 2.2154 2.72341C2.25183 2.24948 2.41844 1.79481 2.69685 1.40955C2.97526 1.02429 3.35467 0.723405 3.79322 0.540073C4.23178 0.356741 4.71244 0.298089 5.18221 0.37059L22.7161 3.0767C23.1197 3.13901 23.5028 3.29625 23.8339 3.53549C24.165 3.77473 24.4345 4.08913 24.6205 4.45285C24.8063 4.81657 24.9032 5.21921 24.9031 5.62768C24.9031 6.03614 24.806 6.43877 24.6201 6.80242L16.5429 22.5987C16.326 23.0207 15.9969 23.3749 15.5919 23.622C15.1868 23.8693 14.7215 24 14.247 23.9999C13.7724 23.9998 13.3071 23.8689 12.9021 23.6216C12.4972 23.3742 12.1683 23.0199 11.9516 22.5978Z" fill="#94A3B8"/>
<path d="M17.7187 6.5452L14.3521 6L10.2187 7.17758L11.8685 10.5642L15.732 13.3614C15.8172 13.4225 15.9109 13.4692 16.0099 13.5L17.4773 10.4889L17.7187 6.5452Z" fill="white"/>
</svg>
