<svg width="30" height="34" viewBox="0 0 30 34" fill="none" xmlns="http://www.w3.org/2000/svg">
<path d="M2.86957 21.6659V22.9932C2.86967 23.275 2.93787 23.5526 3.06835 23.8025C3.19883 24.0525 3.38772 24.267 3.61895 24.4282L8.8797 19.1674L7.42122 17.7089C7.3822 17.6699 7.33588 17.639 7.2849 17.6178C7.23393 17.5967 7.17928 17.5858 7.1241 17.5858C7.06892 17.5858 7.01429 17.5967 6.96332 17.6178C6.91234 17.639 6.86603 17.6699 6.827 17.7089L2.86957 21.6659Z" fill="url(#paint0_linear_1_3044)"/>
<path d="M7.12366 15.9868C7.30002 15.9863 7.47472 16.0208 7.63764 16.0884C7.80056 16.1559 7.94847 16.2551 8.07279 16.3801L9.86931 18.1766L13.5579 14.488C13.9405 14.106 14.459 13.8915 14.9996 13.8915C15.5402 13.8915 16.0588 14.106 16.4413 14.488L21.5701 19.6168L23.1553 18.0316C23.4073 17.7803 23.7484 17.6391 24.1044 17.6391C24.4603 17.6391 24.8016 17.7803 25.0534 18.0316L27.1298 20.1097V11.0076C27.1298 10.7002 27.0489 10.3983 26.895 10.1322C26.7414 9.86598 26.5203 9.64497 26.2542 9.49128L15.8751 3.4988C15.6089 3.3451 15.3068 3.26418 14.9995 3.26418C14.6921 3.26418 14.3901 3.3451 14.1238 3.4988L3.74457 9.49128C3.4784 9.64497 3.25735 9.86598 3.10365 10.1322C2.94995 10.3983 2.86902 10.7002 2.86896 11.0076V19.6849L6.17394 16.3799C6.29835 16.2548 6.44638 16.1556 6.60939 16.0882C6.77242 16.0208 6.94722 15.9862 7.12366 15.9868Z" fill="url(#paint1_linear_1_3044)"/>
<path d="M22.5603 20.6079L26.3798 24.4281C26.611 24.2669 26.7999 24.0522 26.9303 23.8023C27.0608 23.5525 27.1289 23.2749 27.129 22.993V22.0902L24.4003 19.3615C24.3215 19.2827 24.2146 19.2385 24.1032 19.2385C23.9916 19.2385 23.8847 19.2827 23.8059 19.3615L22.5603 20.6079Z" fill="url(#paint2_linear_1_3044)"/>
<path d="M21.5698 21.5979L20.5796 20.6079L15.4508 15.4792C15.3311 15.3597 15.169 15.2926 14.9998 15.2926C14.8307 15.2926 14.6685 15.3597 14.5488 15.4792L10.8602 19.1678L9.86986 20.1582L4.86938 25.158L14.1237 30.5013C14.3899 30.655 14.6919 30.736 14.9993 30.736C15.3066 30.736 15.6087 30.655 15.8749 30.5013L25.1291 25.158L21.5698 21.5979Z" fill="url(#paint3_linear_1_3044)"/>
<path d="M14.9998 1.65459C15.3431 1.65449 15.6805 1.74484 15.9777 1.91651L27.5734 8.6113C27.8708 8.78299 28.1176 9.02991 28.2892 9.32727C28.4609 9.62463 28.5513 9.96194 28.5513 10.3053V23.6949C28.5513 24.0382 28.4609 24.3754 28.2892 24.6728C28.1176 24.9701 27.8708 25.2171 27.5734 25.3887L15.9777 32.0835C15.6803 32.2551 15.3431 32.3456 14.9997 32.3456C14.6563 32.3456 14.319 32.2551 14.0217 32.0835L2.42604 25.3887C2.12869 25.2171 1.88177 24.9701 1.71011 24.6728C1.53844 24.3754 1.44807 24.0382 1.44808 23.6949V10.3053C1.44807 9.96194 1.53844 9.62463 1.71011 9.32727C1.88179 9.02991 2.12869 8.78299 2.42604 8.6113L14.0217 1.91651C14.319 1.74485 14.6564 1.65451 14.9998 1.65459ZM14.9998 0.206512C14.4023 0.206746 13.8153 0.364024 13.2978 0.662584L1.702 7.35736C1.18517 7.65685 0.755975 8.08672 0.457305 8.60402C0.158636 9.12134 0.000948981 9.70796 0 10.3053V23.6949C0.000979519 24.2922 0.158698 24.8789 0.457392 25.3961C0.756088 25.9135 1.1853 26.3433 1.70215 26.6428L13.2978 33.3376C13.8153 33.6363 14.4023 33.7935 14.9998 33.7935C15.5973 33.7935 16.1843 33.6363 16.7018 33.3376L28.2974 26.6428C28.8143 26.3434 29.2437 25.9135 29.5424 25.3963C29.8412 24.8789 29.9989 24.2922 30 23.6949V10.3053C29.9991 9.70796 29.8413 9.12134 29.5427 8.60403C29.244 8.08673 28.8148 7.65685 28.298 7.35736L16.7024 0.662584C16.1849 0.364043 15.5979 0.206767 15.0004 0.206512H14.9998Z" fill="url(#paint4_linear_1_3044)"/>
<defs>
<linearGradient id="paint0_linear_1_3044" x1="5.87463" y1="3.47662" x2="5.87463" y2="30.8465" gradientUnits="userSpaceOnUse">
<stop offset="0.004" stop-color="#4C99D4"/>
<stop offset="0.5" stop-color="#56C3E6"/>
<stop offset="1" stop-color="#B0D8BC"/>
</linearGradient>
<linearGradient id="paint1_linear_1_3044" x1="14.9994" y1="3.48318" x2="14.9994" y2="30.8572" gradientUnits="userSpaceOnUse">
<stop offset="0.004" stop-color="#4C99D4"/>
<stop offset="0.5" stop-color="#56C3E6"/>
<stop offset="1" stop-color="#B0D8BC"/>
</linearGradient>
<linearGradient id="paint2_linear_1_3044" x1="24.8447" y1="3.47732" x2="24.8447" y2="30.8478" gradientUnits="userSpaceOnUse">
<stop offset="0.004" stop-color="#4C99D4"/>
<stop offset="0.5" stop-color="#56C3E6"/>
<stop offset="1" stop-color="#B0D8BC"/>
</linearGradient>
<linearGradient id="paint3_linear_1_3044" x1="14.9993" y1="3.47843" x2="14.9993" y2="30.844" gradientUnits="userSpaceOnUse">
<stop offset="0.004" stop-color="#4C99D4"/>
<stop offset="0.5" stop-color="#56C3E6"/>
<stop offset="1" stop-color="#B0D8BC"/>
</linearGradient>
<linearGradient id="paint4_linear_1_3044" x1="15" y1="33.7935" x2="15" y2="0.206512" gradientUnits="userSpaceOnUse">
<stop stop-color="#B0D8BC"/>
<stop offset="0.5" stop-color="#56C3E6"/>
<stop offset="0.996" stop-color="#4C99D4"/>
</linearGradient>
</defs>
</svg>
