<svg width="28" height="26" viewBox="0 0 28 26" fill="none" xmlns="http://www.w3.org/2000/svg">
<g filter="url(#filter0_i_1_3290)">
<path d="M23.6704 0.334846H4.33704C3.23247 0.334846 2.33704 1.23028 2.33704 2.33485V5.33485C2.33704 6.43942 3.23247 7.33485 4.33704 7.33485H23.6704C24.7749 7.33485 25.6704 6.43942 25.6704 5.33485V2.33485C25.6704 1.23028 24.7749 0.334846 23.6704 0.334846Z" fill="#C4C4C4"/>
</g>
<path fill-rule="evenodd" clip-rule="evenodd" d="M6.98303 3.06099L9.48443 5.67319H12.0962L8.37103 1.61819L6.98303 3.06099Z" fill="url(#paint0_linear_1_3290)"/>
<g filter="url(#filter1_d_1_3290)">
<path fill-rule="evenodd" clip-rule="evenodd" d="M7.67017 3.33491C8.22247 3.33491 8.67017 2.88721 8.67017 2.33491C8.67017 1.78261 8.22247 1.33491 7.67017 1.33491C7.11787 1.33491 6.67017 1.78261 6.67017 2.33491C6.67017 2.88721 7.11787 3.33491 7.67017 3.33491Z" fill="#EFEFEF"/>
</g>
<path fill-rule="evenodd" clip-rule="evenodd" d="M19.6497 3.06099L22.1511 5.67319H24.7628L21.0377 1.61819L19.6497 3.06099Z" fill="url(#paint1_linear_1_3290)"/>
<g filter="url(#filter2_d_1_3290)">
<path fill-rule="evenodd" clip-rule="evenodd" d="M20.3369 3.33491C20.8892 3.33491 21.3369 2.88721 21.3369 2.33491C21.3369 1.78261 20.8892 1.33491 20.3369 1.33491C19.7846 1.33491 19.3369 1.78261 19.3369 2.33491C19.3369 2.88721 19.7846 3.33491 20.3369 3.33491Z" fill="#EFEFEF"/>
</g>
<g filter="url(#filter3_i_1_3290)">
<path fill-rule="evenodd" clip-rule="evenodd" d="M27.0441 6.33493C27.2128 5.23053 26.4317 4.33486 25.2991 4.33486H2.70094C1.56927 4.33486 0.787069 5.23033 0.955902 6.33493L2.28047 15.0005L1.5632 23.6651C1.39437 24.7697 2.86714 25.6651 3.9988 25.6651H24.1183C25.2509 25.6651 26.3859 24.7695 26.2171 23.6651L25.7195 15.0007L27.0441 6.33493Z" fill="#4687F4"/>
</g>
<g filter="url(#filter4_i_1_3290)">
<path fill-rule="evenodd" clip-rule="evenodd" d="M2.70094 4.33486H25.2991C26.4317 4.33486 27.2128 5.23053 27.0441 6.33493L25.7194 15.0015H2.2806L0.955902 6.33493C0.787069 5.23033 1.56927 4.33486 2.70094 4.33486Z" fill="#3866D0"/>
</g>
<path fill-rule="evenodd" clip-rule="evenodd" d="M24.1189 25.6652C25.2515 25.6652 26.3865 24.7695 26.2177 23.6651L25.7159 15.1653H2.26917L12.3939 25.6652H24.1189Z" fill="url(#paint2_linear_1_3290)"/>
<path fill-rule="evenodd" clip-rule="evenodd" d="M15.6231 10.8683L19.9724 9.206V20.7055H18.6298V11.0643L15.6231 12.1837V10.8683ZM9.1145 14.2606H10.4158C11.0765 14.2606 11.5443 14.093 11.8192 13.7579C12.0941 13.4228 12.2315 12.956 12.2315 12.3575C12.2315 11.718 12.0752 11.232 11.7625 10.8995C11.4498 10.5669 10.9883 10.4007 10.378 10.4007C9.79793 10.4007 9.33263 10.5733 8.9821 10.9187C8.63157 11.264 8.4563 11.7231 8.4563 12.2961H7.02637L7.01124 12.25C6.98604 11.4059 7.2874 10.6884 7.91534 10.0976C8.5433 9.5067 9.36417 9.21127 10.378 9.21127C11.3968 9.21127 12.2088 9.48624 12.8141 10.0362C13.4194 10.5861 13.722 11.3701 13.722 12.3882C13.722 12.8486 13.5845 13.3077 13.3096 13.7656C13.0348 14.2235 12.6224 14.5726 12.0727 14.8131C12.7334 15.0331 13.2012 15.3784 13.4761 15.849C13.751 16.3197 13.8884 16.8466 13.8884 17.4298C13.8884 18.4479 13.5593 19.2485 12.9011 19.8317C12.2429 20.4149 11.4018 20.7065 10.378 20.7065C9.37423 20.7065 8.5433 20.4315 7.88507 19.8816C7.22687 19.3316 6.91037 18.586 6.9356 17.6447L6.9583 17.5986H8.38064C8.38064 18.187 8.55843 18.655 8.914 19.0029C9.2696 19.3508 9.75757 19.5247 10.378 19.5247C11.0084 19.5247 11.5027 19.3508 11.8608 19.0029C12.2189 18.655 12.398 18.1409 12.398 17.4605C12.398 16.7699 12.2391 16.2608 11.9214 15.9334C11.6036 15.606 11.1017 15.4423 10.4158 15.4423H9.1145V14.2606Z" fill="#EEEEEE"/>
<path fill-rule="evenodd" clip-rule="evenodd" d="M12.5337 15.0024H9.1144V14.2606H10.4157C11.0764 14.2606 11.5442 14.093 11.8191 13.7579C12.094 13.4228 12.2315 12.956 12.2315 12.3575C12.2315 11.718 12.0751 11.232 11.7624 10.8995C11.4497 10.5669 10.9882 10.4007 10.3779 10.4007C9.79783 10.4007 9.33257 10.5733 8.982 10.9187C8.63147 11.264 8.4562 11.7231 8.4562 12.2961H7.0263L7.01117 12.25C6.98593 11.4059 7.2873 10.6884 7.91527 10.0976C8.5432 9.5067 9.36407 9.21127 10.3779 9.21127C11.3967 9.21127 12.2088 9.48624 12.814 10.0362C13.4193 10.5861 13.7219 11.3701 13.7219 12.3882C13.7219 12.8486 13.5844 13.3077 13.3096 13.7656C13.0347 14.2235 12.6223 14.5726 12.0726 14.8131C12.2384 14.8683 12.3922 14.9314 12.5337 15.0024ZM19.9723 14.9967V9.206L15.623 10.8683V12.1837L18.6297 11.0643V14.9967H19.9723Z" fill="#D4D4D4"/>
<g filter="url(#filter5_i_1_3290)">
<path fill-rule="evenodd" clip-rule="evenodd" d="M3.99926 25.6651H24.1188C25.2514 25.6651 26.3864 24.7695 26.2176 23.6651L25.7199 14.9985H2.28109L1.56366 23.6651C1.39483 24.7697 2.86759 25.6651 3.99926 25.6651Z" fill="black" fill-opacity="0.01"/>
</g>
<defs>
<filter id="filter0_i_1_3290" x="2.33704" y="0.334846" width="23.3333" height="7.625" filterUnits="userSpaceOnUse" color-interpolation-filters="sRGB">
<feFlood flood-opacity="0" result="BackgroundImageFix"/>
<feBlend mode="normal" in="SourceGraphic" in2="BackgroundImageFix" result="shape"/>
<feColorMatrix in="SourceAlpha" type="matrix" values="0 0 0 0 0 0 0 0 0 0 0 0 0 0 0 0 0 0 127 0" result="hardAlpha"/>
<feOffset dy="0.625"/>
<feGaussianBlur stdDeviation="1.25"/>
<feComposite in2="hardAlpha" operator="arithmetic" k2="-1" k3="1"/>
<feColorMatrix type="matrix" values="0 0 0 0 0.792157 0 0 0 0 0.792157 0 0 0 0 0.792157 0 0 0 1 0"/>
<feBlend mode="normal" in2="shape" result="effect1_innerShadow_1_3290"/>
</filter>
<filter id="filter1_d_1_3290" x="6.35767" y="1.33491" width="3.25" height="3.25" filterUnits="userSpaceOnUse" color-interpolation-filters="sRGB">
<feFlood flood-opacity="0" result="BackgroundImageFix"/>
<feColorMatrix in="SourceAlpha" type="matrix" values="0 0 0 0 0 0 0 0 0 0 0 0 0 0 0 0 0 0 127 0" result="hardAlpha"/>
<feOffset dx="0.3125" dy="0.625"/>
<feGaussianBlur stdDeviation="0.3125"/>
<feColorMatrix type="matrix" values="0 0 0 0 0 0 0 0 0 0 0 0 0 0 0 0 0 0 0.1 0"/>
<feBlend mode="normal" in2="BackgroundImageFix" result="effect1_dropShadow_1_3290"/>
<feBlend mode="normal" in="SourceGraphic" in2="effect1_dropShadow_1_3290" result="shape"/>
</filter>
<filter id="filter2_d_1_3290" x="19.0244" y="1.33491" width="3.25" height="3.25" filterUnits="userSpaceOnUse" color-interpolation-filters="sRGB">
<feFlood flood-opacity="0" result="BackgroundImageFix"/>
<feColorMatrix in="SourceAlpha" type="matrix" values="0 0 0 0 0 0 0 0 0 0 0 0 0 0 0 0 0 0 127 0" result="hardAlpha"/>
<feOffset dx="0.3125" dy="0.625"/>
<feGaussianBlur stdDeviation="0.3125"/>
<feColorMatrix type="matrix" values="0 0 0 0 0 0 0 0 0 0 0 0 0 0 0 0 0 0 0.1 0"/>
<feBlend mode="normal" in2="BackgroundImageFix" result="effect1_dropShadow_1_3290"/>
<feBlend mode="normal" in="SourceGraphic" in2="effect1_dropShadow_1_3290" result="shape"/>
</filter>
<filter id="filter3_i_1_3290" x="0.932983" y="3.70986" width="26.134" height="21.9553" filterUnits="userSpaceOnUse" color-interpolation-filters="sRGB">
<feFlood flood-opacity="0" result="BackgroundImageFix"/>
<feBlend mode="normal" in="SourceGraphic" in2="BackgroundImageFix" result="shape"/>
<feColorMatrix in="SourceAlpha" type="matrix" values="0 0 0 0 0 0 0 0 0 0 0 0 0 0 0 0 0 0 127 0" result="hardAlpha"/>
<feOffset dy="-0.625"/>
<feGaussianBlur stdDeviation="1.25"/>
<feComposite in2="hardAlpha" operator="arithmetic" k2="-1" k3="1"/>
<feColorMatrix type="matrix" values="0 0 0 0 0.258824 0 0 0 0 0.494118 0 0 0 0 0.913725 0 0 0 1 0"/>
<feBlend mode="normal" in2="shape" result="effect1_innerShadow_1_3290"/>
</filter>
<filter id="filter4_i_1_3290" x="0.932983" y="4.33486" width="26.134" height="11.2917" filterUnits="userSpaceOnUse" color-interpolation-filters="sRGB">
<feFlood flood-opacity="0" result="BackgroundImageFix"/>
<feBlend mode="normal" in="SourceGraphic" in2="BackgroundImageFix" result="shape"/>
<feColorMatrix in="SourceAlpha" type="matrix" values="0 0 0 0 0 0 0 0 0 0 0 0 0 0 0 0 0 0 127 0" result="hardAlpha"/>
<feOffset dy="0.625"/>
<feGaussianBlur stdDeviation="1.25"/>
<feComposite in2="hardAlpha" operator="arithmetic" k2="-1" k3="1"/>
<feColorMatrix type="matrix" values="0 0 0 0 0.282353 0 0 0 0 0.45098 0 0 0 0 0.831373 0 0 0 1 0"/>
<feBlend mode="normal" in2="shape" result="effect1_innerShadow_1_3290"/>
</filter>
<filter id="filter5_i_1_3290" x="1.55035" y="14.9985" width="24.684" height="10.9792" filterUnits="userSpaceOnUse" color-interpolation-filters="sRGB">
<feFlood flood-opacity="0" result="BackgroundImageFix"/>
<feBlend mode="normal" in="SourceGraphic" in2="BackgroundImageFix" result="shape"/>
<feColorMatrix in="SourceAlpha" type="matrix" values="0 0 0 0 0 0 0 0 0 0 0 0 0 0 0 0 0 0 127 0" result="hardAlpha"/>
<feOffset dy="0.3125"/>
<feGaussianBlur stdDeviation="1.25"/>
<feComposite in2="hardAlpha" operator="arithmetic" k2="-1" k3="1"/>
<feColorMatrix type="matrix" values="0 0 0 0 0.588542 0 0 0 0 0.588542 0 0 0 0 0.588542 0 0 0 0.2 0"/>
<feBlend mode="normal" in2="shape" result="effect1_innerShadow_1_3290"/>
</filter>
<linearGradient id="paint0_linear_1_3290" x1="5.8082" y1="3.52902" x2="7.78403" y2="7.20272" gradientUnits="userSpaceOnUse">
<stop stop-color="#B0B0B0"/>
<stop offset="1" stop-color="#D8D8D8" stop-opacity="0.01"/>
</linearGradient>
<linearGradient id="paint1_linear_1_3290" x1="18.4748" y1="3.52902" x2="20.4507" y2="7.20272" gradientUnits="userSpaceOnUse">
<stop stop-color="#B0B0B0"/>
<stop offset="1" stop-color="#D8D8D8" stop-opacity="0.01"/>
</linearGradient>
<linearGradient id="paint2_linear_1_3290" x1="5.6554" y1="16.379" x2="6.77483" y2="26.3336" gradientUnits="userSpaceOnUse">
<stop stop-color="#3C78DD"/>
<stop offset="1" stop-color="#4688F4" stop-opacity="0.01"/>
</linearGradient>
</defs>
</svg>
