<svg width="16" height="16" viewBox="0 0 16 16" fill="none" xmlns="http://www.w3.org/2000/svg">
<path d="M8.93331 7.59998V4.26664C8.93331 4.08983 8.86307 3.92026 8.73805 3.79524C8.61302 3.67021 8.44345 3.59998 8.26664 3.59998C8.08983 3.59998 7.92026 3.67021 7.79524 3.79524C7.67021 3.92026 7.59998 4.08983 7.59998 4.26664V7.59998H4.26664C4.08983 7.59998 3.92026 7.67021 3.79524 7.79524C3.67021 7.92026 3.59998 8.08983 3.59998 8.26664C3.59998 8.44345 3.67021 8.61302 3.79524 8.73805C3.92026 8.86307 4.08983 8.93331 4.26664 8.93331H7.59998V12.2666C7.59998 12.4435 7.67021 12.613 7.79524 12.738C7.92026 12.8631 8.08983 12.9333 8.26664 12.9333C8.44345 12.9333 8.61302 12.8631 8.73805 12.738C8.86307 12.613 8.93331 12.4435 8.93331 12.2666V8.93331H12.2666C12.4435 8.93331 12.613 8.86307 12.738 8.73805C12.8631 8.61302 12.9333 8.44345 12.9333 8.26664C12.9333 8.08983 12.8631 7.92026 12.738 7.79524C12.613 7.67021 12.4435 7.59998 12.2666 7.59998H8.93331Z" fill="#2563EB"/>
</svg>
