<svg width="25" height="25" viewBox="0 0 25 25" fill="none" xmlns="http://www.w3.org/2000/svg">
<path d="M12.8333 20.5C14.9551 20.5 16.9899 19.6571 18.4902 18.1569C19.9905 16.6566 20.8333 14.6217 20.8333 12.5C20.8333 10.3783 19.9905 8.34344 18.4902 6.84315C16.9899 5.34285 14.9551 4.5 12.8333 4.5C10.7116 4.5 8.67678 5.34285 7.17649 6.84315C5.6762 8.34344 4.83334 10.3783 4.83334 12.5C4.83334 14.6217 5.6762 16.6566 7.17649 18.1569C8.67678 19.6571 10.7116 20.5 12.8333 20.5V20.5ZM12.8333 22.5C7.31034 22.5 2.83334 18.023 2.83334 12.5C2.83334 6.977 7.31034 2.5 12.8333 2.5C18.3563 2.5 22.8333 6.977 22.8333 12.5C22.8333 18.023 18.3563 22.5 12.8333 22.5Z" fill="#CBD5E1"/>
</svg>
