<svg width="24" height="25" viewBox="0 0 24 25" fill="none" xmlns="http://www.w3.org/2000/svg">
<path d="M12 20.5C14.1217 20.5 16.1566 19.6571 17.6569 18.1569C19.1572 16.6566 20 14.6217 20 12.5C20 10.3783 19.1572 8.34344 17.6569 6.84315C16.1566 5.34285 14.1217 4.5 12 4.5C9.87828 4.5 7.84344 5.34285 6.34315 6.84315C4.84286 8.34344 4.00001 10.3783 4.00001 12.5C4.00001 14.6217 4.84286 16.6566 6.34315 18.1569C7.84344 19.6571 9.87828 20.5 12 20.5V20.5ZM12 22.5C6.47701 22.5 2.00001 18.023 2.00001 12.5C2.00001 6.977 6.47701 2.5 12 2.5C17.523 2.5 22 6.977 22 12.5C22 18.023 17.523 22.5 12 22.5Z" fill="#CBD5E1"/>
</svg>
