<svg width="22" height="16" viewBox="0 0 22 16" fill="none" xmlns="http://www.w3.org/2000/svg">
<path fill-rule="evenodd" clip-rule="evenodd" d="M7.66339 12.1981C7.66339 12.1981 8.85959 10.8773 10.8532 10.8773C12.8468 10.8773 14.195 12.1981 14.195 12.1981L10.9292 15.7699L7.66339 12.1981ZM5.83811 10.4359C5.83811 10.4359 7.94231 8.32766 10.9291 8.30806C13.9159 8.28826 16.0831 10.4359 16.0831 10.4359L17.9745 8.30786C17.9745 8.30786 14.9365 5.49066 10.9291 5.51026C6.92171 5.53006 3.86791 8.42625 3.86791 8.42625L5.83811 10.4359ZM2.25233 6.47575C2.25233 6.47575 6.16913 3.00816 10.9291 3.00816C15.6891 3.00816 19.6295 6.47575 19.6295 6.47575L21.5209 4.40696C21.5209 4.40696 16.8515 0.210556 10.9213 0.230156C4.99093 0.249956 0.479126 4.46615 0.479126 4.46615L2.25233 6.47575Z" fill="url(#paint0_linear_1_3347)"/>
<defs>
<linearGradient id="paint0_linear_1_3347" x1="0.479126" y1="0.230096" x2="0.479126" y2="15.7699" gradientUnits="userSpaceOnUse">
<stop stop-color="#19DEFE"/>
<stop offset="1" stop-color="#1E5BEF"/>
</linearGradient>
</defs>
</svg>
