<svg width="36" height="34" viewBox="0 0 36 34" fill="none" xmlns="http://www.w3.org/2000/svg">
<path fill-rule="evenodd" clip-rule="evenodd" d="M28.1767 13.062L35.0455 18.5199L24.9812 25.3709L17.998 19.1443L11.0149 25.3709L0.950439 18.5199L7.82329 13.0589L0.954375 7.60108L11.0188 0.75L18.002 6.97665L24.9851 0.75L35.0495 7.60108L28.1767 13.062ZM28.1593 13.0593L17.998 19.1427L7.84066 13.0616L18.002 6.97824L28.1593 13.0593ZM7.83611 26.571L17.9603 33.25L28.0526 26.571V24.3806L25.0109 26.4675L17.9603 20.2338C17.9603 20.2338 10.8257 26.4675 10.9288 26.4675C11.032 26.4675 7.83611 24.339 7.83611 24.339V26.687V26.571Z" fill="url(#paint0_linear_1_2991)"/>
<defs>
<linearGradient id="paint0_linear_1_2991" x1="2.95862" y1="4.57804" x2="2.95862" y2="33.25" gradientUnits="userSpaceOnUse">
<stop stop-color="#129EF6"/>
<stop offset="1" stop-color="#0180E6"/>
</linearGradient>
</defs>
</svg>
